# xmcd CD database file
#
# Track frame offsets:
#	150
#	16573
#	28890
#	42220
#	55612
#	69056
#	78888
#	91519
#	106667
#	121462
#	137771
#
# Disc length: 1999 seconds
#
# Revision: 0
# Processed by: cddbd v1.5.2PL0 Copyright (c) Steve Scherf et al.
# Submitted via: CDex 1.70beta2
#
DISCID=7207cd0b
DTITLE=Markus Schlesinger - Stories To Be Told
DYEAR=2018
DGENRE=Jazz
TTITLE0=Sittin On Top Of The World
TTITLE1=Ain't No Sunshine
TTITLE2=Wenn Katzen, ...
TTITLE3=The Flight Of The Raven And The Snowgoose
TTITLE4=Ring My Bell Rag
TTITLE5=Layla
TTITLE6=Waiting For
TTITLE7=Mephisto's Offer
TTITLE8=Still A Chance
TTITLE9=Dancing Between The Raindrops
TTITLE10=For Me
EXTD=YEAR: 2018
EXTT0=
EXTT1=
EXTT2=
EXTT3=
EXTT4=
EXTT5=
EXTT6=
EXTT7=
EXTT8=
EXTT9=
EXTT10=
PLAYORDER=
